<?xml version="1.0" encoding="utf-8"?>
<!-- Generator: Adobe Illustrator 27.0.0, SVG Export Plug-In . SVG Version: 6.00 Build 0)  -->
<svg version="1.1" id="图层_1" xmlns="http://www.w3.org/2000/svg" xmlns:xlink="http://www.w3.org/1999/xlink" x="0px" y="0px"
	 viewBox="0 0 32 32" style="enable-background:new 0 0 32 32;" xml:space="preserve">
<style type="text/css">
	.st0{fill:#AA142D;}
	.st1{fill:#BDB9B4;}
</style>
<path class="st0" d="M15.3,16.2l-7.7,8.5c-0.3,0.3-0.6,1-0.4,1.4c0.2,0.4,0.7,0.7,1.2,0.7c0.3,0,0.5-0.1,0.8-0.4l9.6-9.3
	c0.6-0.6,0.6-1.6,0-2.2L15.3,16.2L15.3,16.2z"/>
<path class="st1" d="M15.2,16l7.2-8.5c0.4-0.5,0.6-0.8,0.4-1.2c-0.2-0.5-0.7-0.8-1.2-0.8c-0.3,0-0.6,0.1-0.8,0.3l-9.2,9.1
	c-0.7,0.7-0.7,1.5,0,2.2l12.8,12.6c0.2,0.2,0.5,0.3,0.8,0.3c0.5,0,0.9-0.3,1.1-0.7c0.2-0.4,0-0.9-0.4-1.3L15.2,16"/>
<path class="st0" d="M18.8,14.9L6.3,2.5c0,0-0.5-0.5-0.9-0.5c-0.5,0-1,0.3-1.2,0.7C4,3.1,4.2,3.4,4.6,4l10.7,12.2L18.8,14.9z"/>
</svg>
