<?xml version="1.0" encoding="utf-8"?>
<!-- Generator: Adobe Illustrator 27.0.0, SVG Export Plug-In . SVG Version: 6.00 Build 0)  -->
<svg version="1.1" id="图层_1" xmlns="http://www.w3.org/2000/svg" xmlns:xlink="http://www.w3.org/1999/xlink" x="0px" y="0px"
	 viewBox="0 0 180 200" style="enable-background:new 0 0 180 200;" xml:space="preserve">
<style type="text/css">
	.st0{fill:#FFFFFF;}
</style>
<path class="st0" d="M81.2,46.9c5.4-4.2,12-0.8,16.4,3.1c4.8,3.5,9.7,7.5,13.8,11.7l0.8,0.5c11.6,11.1,22.7,23.2,31.7,36.2
	c1.4,2.3,2.8,4.8,1.8,7.7c-3.1,7.5-9,13.5-14.6,20.2c-11.5,12.5-23.6,24.5-37.4,34c-2.8,1.8-6.6,3.7-9.8,2.2
	c-9.7-5.2-18.2-13.5-26.8-21.5C47,131.4,36.7,120.3,29,108.6c-1.2-1.7-1.4-3.5-1.4-5.7c0.9-4,3.7-7.2,6.3-10.6
	c9-11.7,20.4-22.8,31.6-32.9l1.2-1.2C71.3,54.3,76.1,50.6,81.2,46.9 M96.6,34.6l-6.1-8.5c-0.8-0.5-1.7-1.2-2.6-1.4
	c-1.8-0.8-3.7,0.3-5.2,1.2L72,40.1c-17,21.7-37.6,42-59.9,57.4c-1.8,1.4-4.4,2.8-4.9,5.2c-0.5,2.2,0.5,3.7,1.7,4.9
	c17.9,12.5,35.1,27.2,50.6,43.9c2.8,2.8,4.9,5.7,7.5,8.5c4.4,5.8,9.8,12,13.8,18.3c1.4,1.4,1.4,3.5,3.5,4.2c1.7,0.5,3.5,0.9,5.2,0
	l1.4-1.4c18.7-26.5,42.2-50.2,68.5-69.3c2.6-2.3,7.7-3.2,7.7-7.7c-0.3-2.2-1.4-4-3.1-5.2h-0.5c-13.5-9.1-26.2-19.7-38.2-31.7
	l-13-13.9C106.9,47.5,101.7,41,96.6,34.6 M83,50.1c5.4-3.7,10.3,1.4,14.6,4.5c16.1,13.1,31.6,28.2,43.1,45.1c1.4,2.2,2.1,5.7,0.9,8
	c-3.1,5.2-7.1,9.7-11,14.3v0.3c-9.7,10.3-19.6,20.9-30.7,29.6c-5.4,3.2-10.3,10.3-17,6.2c-15.6-11.5-31-26-43.5-41.4
	c-2.1-3.2-5.7-6.2-7.1-10.2c-2.1-5.2,2.6-8.9,5.2-12.9C50.3,77.7,66.4,61.8,83,50.1 M86.5,60.7l-1.4,4.8l-7.2,21.1
	c1.8,0.3,4.1,0,5.8,0.3v0.3l-1.2,24l0.3,0.3c2.3,0.3,5.4,0.3,7.7,0v-0.5l-0.9-23.2l0.3-0.8h6.6C92.8,78.1,89.9,69.3,86.5,60.7
	L86.5,60.7z M61.5,93.8c-4.1,2.2-10.3,5.2-9.7,10.8c0.9,3.1,4.1,5.2,6.7,6.3c14.7,6.6,33.9,6.6,49.4,1.8c3.7-1.4,8.9-3.5,9.7-8.2
	c0-4-4.1-6.3-7.1-7.7v-0.3c0.9-0.5,2.1-0.8,3.2-0.9c-5.2-0.9-10.1-2.3-15.2-3.5c0.9,2.2,1.7,4.5,2.6,6.8c1.4-0.5,3.1-0.9,4.8-1.2
	c2.6,0.9,6.3,2.6,6.7,5.8c0.3,3.1-3.1,4.8-5.2,5.8c-11.2,4.2-24.1,4.5-35.7,1.4c-3.2-0.9-8-2.3-8.4-6.6c2.3-5.4,8.1-6.6,13.3-8
	c-2.6-1.7-5.2-3.1-7.7-4.9C66.4,91.7,64.1,92.9,61.5,93.8 M82.5,117.7c-0.5,8.5-0.5,16.5-1.2,24.9c3.2,0.3,7.1,0.8,10.7,0l-1.2-23.7
	l-0.3-1.2C87.9,118,85.5,118,82.5,117.7 M113.7,166.3c-3.1,0-5.7,2.2-5.7,5.7c0,3.5,2.6,5.7,5.7,5.7s5.7-2.2,5.7-5.7
	C119.3,168.2,116.7,166.3,113.7,166.3 M113.7,176.2c-2.1,0-4-1.7-4-4.2c0-2.6,1.8-4.2,4-4.2s4,1.7,4,4.2
	C117.6,174.3,115.8,176.2,113.7,176.2 M116.3,170.6c0-1.4-0.9-1.8-2.6-1.8h-2.3v6.2h1.2v-2.6h0.8l1.4,2.6h1.7l-1.7-2.6
	C115.5,172.2,116.3,171.7,116.3,170.6 M114,171.2h-1.2v-1.4h0.9c0.5,0,1.2,0,1.2,0.8C114.9,171.2,114.4,171.2,114,171.2"/>
</svg>
