<?xml version="1.0" standalone="no"?><!DOCTYPE svg PUBLIC "-//W3C//DTD SVG 1.1//EN" "http://www.w3.org/Graphics/SVG/1.1/DTD/svg11.dtd"><svg t="1741336353496" class="icon" viewBox="0 0 1024 1024" version="1.1" xmlns="http://www.w3.org/2000/svg" p-id="2656" xmlns:xlink="http://www.w3.org/1999/xlink" width="32" height="32"><path d="M842.33728 824.11008c0 0-138.41408 38.10816-282.80832 76.22656-17.31072 0-34.72896 0-52.03968 0-143.18592-38.11328-281.73824-76.22656-281.73824-76.22656-54.35392-17.48992-102.77376-45.52192-102.77376-101.65248L122.97728 188.78976c0-56.13568 46.01344-101.65248 102.77376-101.65248 0 0 152.99584 42.07616 281.73824 76.22656 16.9472 0 34.01728 0.65536 50.96448 0 135.15776-35.72736 283.88352-76.22656 283.88352-76.22656 56.7552 0 102.7584 45.5168 102.7584 101.65248l0 533.66272C945.09568 778.58816 895.05792 810.5984 842.33728 824.11008zM225.74592 137.96864c-28.37504 0-51.39456 22.75328-51.39456 50.82112l0 533.66272c0 28.06784 22.20544 42.86976 51.39456 50.80576 0 0 142.29504 38.89152 282.60352 76.19584L508.34944 214.19008 225.74592 137.96864zM893.71648 188.78976c0-28.06784-22.99904-50.82112-51.3792-50.82112l-282.60352 76.22144 0 634.71616c142.75584-37.15072 282.60352-75.64288 282.60352-75.64288 27.56608-8.70912 51.3792-22.7328 51.3792-50.80576L893.71648 188.78976z" fill="#ffffff" p-id="2657"></path></svg>